<svg width="260" height="48" viewBox="0 0 260 48" fill="none" xmlns="http://www.w3.org/2000/svg" role="img" aria-label="Kết Nối Mạng HCM">
  <defs>
    <linearGradient id="logo-bg" x1="4" y1="4" x2="44" y2="44" gradientUnits="userSpaceOnUse">
      <stop stop-color="#2563EB"/>
      <stop offset="1" stop-color="#0EA5E9"/>
    </linearGradient>
    <linearGradient id="logo-text" x1="58" y1="12" x2="250" y2="36" gradientUnits="userSpaceOnUse">
      <stop stop-color="#1E3A8A"/>
      <stop offset="1" stop-color="#2563EB"/>
    </linearGradient>
  </defs>

  <rect x="0" y="0" width="48" height="48" rx="12" fill="url(#logo-bg)"/>
  <circle cx="24" cy="24" r="17" fill="#FFFFFF" fill-opacity="0.12"/>

  <path d="M12 28C18.2 21.2 29.8 21.2 36 28" stroke="#FFFFFF" stroke-width="3.2" stroke-linecap="round"/>
  <path d="M16.5 24.2C20.4 20.3 27.6 20.3 31.5 24.2" stroke="#FFFFFF" stroke-width="2.8" stroke-linecap="round"/>
  <circle cx="24" cy="31.5" r="2.8" fill="#F97316"/>

  <path d="M18 16.5H30C31.9 16.5 33.5 18.1 33.5 20V22.5C33.5 24.4 31.9 26 30 26H27.2L24 29.2V26H18C16.1 26 14.5 24.4 14.5 22.5V20C14.5 18.1 16.1 16.5 18 16.5Z" fill="#FFFFFF" fill-opacity="0.95"/>
  <path d="M19.5 20.5H28.5" stroke="#2563EB" stroke-width="1.8" stroke-linecap="round"/>
  <path d="M19.5 23.5H25.5" stroke="#F97316" stroke-width="1.8" stroke-linecap="round"/>

  <text x="58" y="22" fill="url(#logo-text)" font-family="Inter, system-ui, -apple-system, Segoe UI, Roboto, Arial, sans-serif" font-size="17" font-weight="700" letter-spacing="-0.02em">Kết Nối Mạng HCM</text>
  <text x="58" y="38" fill="#64748B" font-family="Inter, system-ui, -apple-system, Segoe UI, Roboto, Arial, sans-serif" font-size="11.5" font-weight="600" letter-spacing="0.01em">Tư vấn WiFi · SIM 5G · Camera VNPT</text>
</svg>
