<svg width="512" height="512" viewBox="0 0 512 512" fill="none" xmlns="http://www.w3.org/2000/svg" role="img" aria-label="Kết Nối Mạng HCM">
  <defs>
    <linearGradient id="icon-bg" x1="64" y1="64" x2="448" y2="448" gradientUnits="userSpaceOnUse">
      <stop stop-color="#2563EB"/>
      <stop offset="1" stop-color="#0EA5E9"/>
    </linearGradient>
  </defs>

  <rect width="512" height="512" rx="112" fill="url(#icon-bg)"/>
  <circle cx="256" cy="256" r="170" fill="#FFFFFF" fill-opacity="0.12"/>

  <path d="M128 292C176 236 336 236 384 292" stroke="#FFFFFF" stroke-width="34" stroke-linecap="round"/>
  <path d="M176 244C208 212 304 212 336 244" stroke="#FFFFFF" stroke-width="30" stroke-linecap="round"/>
  <circle cx="256" cy="328" r="30" fill="#F97316"/>

  <path d="M176 168H336C358 168 376 186 376 208V248C376 270 358 288 336 288H304L256 336V288H176C154 288 136 270 136 248V208C136 186 154 168 176 168Z" fill="#FFFFFF"/>
  <path d="M196 216H316" stroke="#2563EB" stroke-width="22" stroke-linecap="round"/>
  <path d="M196 252H268" stroke="#F97316" stroke-width="22" stroke-linecap="round"/>
</svg>
